<?xml version="1.0" encoding="UTF-8"?>
<svg id="Capa_2" data-name="Capa 2" xmlns="http://www.w3.org/2000/svg" xmlns:xlink="http://www.w3.org/1999/xlink" viewBox="0 0 824 948.83">
  <defs>
    <style>
      .cls-1 {
        fill: url(#Degradado_sin_nombre_213-2);
      }

      .cls-2 {
        fill: url(#Degradado_sin_nombre_213-3);
      }

      .cls-3 {
        fill: url(#Degradado_sin_nombre_16);
      }

      .cls-4 {
        fill: url(#Degradado_sin_nombre_213-4);
      }

      .cls-5 {
        fill: url(#Degradado_sin_nombre_213);
      }
    </style>
    <linearGradient id="Degradado_sin_nombre_16" data-name="Degradado sin nombre 16" x1=".01" y1="359.73" x2="823.86" y2="359.73" gradientUnits="userSpaceOnUse">
      <stop offset="0" stop-color="#00d0ff"/>
      <stop offset="1" stop-color="#58b031"/>
    </linearGradient>
    <linearGradient id="Degradado_sin_nombre_213" data-name="Degradado sin nombre 213" x1="368.94" y1="695.04" x2="824" y2="695.04" gradientUnits="userSpaceOnUse">
      <stop offset="0" stop-color="#fff"/>
      <stop offset="1" stop-color="#c5e3da"/>
    </linearGradient>
    <linearGradient id="Degradado_sin_nombre_213-2" data-name="Degradado sin nombre 213" x1="0" y1="655.6" x2="334.6" y2="655.6" xlink:href="#Degradado_sin_nombre_213"/>
    <linearGradient id="Degradado_sin_nombre_213-3" data-name="Degradado sin nombre 213" x1="368.81" y1="290.83" x2="454.92" y2="290.83" xlink:href="#Degradado_sin_nombre_213"/>
    <linearGradient id="Degradado_sin_nombre_213-4" data-name="Degradado sin nombre 213" x1="368.81" y1="61.84" x2="454.68" y2="61.84" xlink:href="#Degradado_sin_nombre_213"/>
  </defs>
  <g id="Capa_1-2" data-name="Capa 1">
    <g>
      <path class="cls-3" d="M776.86,210.4c30.4,17.63,47.03,50.15,46.99,84l-.07,64.38-86.95.9.51-57.27c-.96-11.7-7.7-20.25-17.78-26.04l-143.8-82.64-.98,336.45c-.18,62.57-42.63,114.57-100.49,134.3-41.16,14.04-83.28,12.99-124.62.32-57.81-19.8-100.1-70.67-100.61-132.86l-1.61-199.07-166.07,94.94c-17.59,10.06-39.07,5.8-55.49-5.39-13.82-9.41-24.64-26.67-25.15-46.25-.79-29.89-1.24-59.3.18-89.02,1.69-35.33,21.92-63.23,51.98-80.53L334.09,44.8l.55,98.45-233.98,135.48c-16.54,9.57-15.2,31.08-12.48,48.22l151.48-86.25c29.58-16.84,66.26-8.92,84.03,19.94,7.36,11.96,10.77,25.66,10.81,40.02l.68,224.87c.07,23.76,15.74,45.8,36.94,54.62,25.72,10.7,54.24,10.67,79.88.11,21.01-8.65,36.68-30.38,36.73-54.13l.69-361.47c.03-16.22,6.11-30.9,16.17-43.1,22.25-26.99,62.08-32.45,92.68-14.71l178.6,103.56Z"/>
      <path class="cls-5" d="M368.98,702.33c29.96,5.74,57.52,4.94,85.69.58l.9,135.66,263.6-152.11c13.6-7.85,18.3-21.33,18.28-36.02l-.2-122.99-78.12-.48-.16-85.62,165.05-.1-.42,227.02c-.07,36.32-20.1,66.87-50.21,85.57l-313.64,181.46c-28.77,16.65-61.91,18.52-90.79,2.38l.04-235.35Z"/>
      <path class="cls-1" d="M334.6,819.21l-.54,98.61L51.12,754.12c-30.95-19.57-49.87-50.79-50.58-87.64-.57-29.54-.96-58.44.25-87.48,1.85-44.33,26.7-78.24,63.98-99.71l149.09-85.89.3,97.94-104.05,61.03c-12.99,6.58-21.36,18.18-23.58,32.5l.35,71.42c.07,14.55,8.38,25.93,21.48,32.31l226.24,130.62Z"/>
      <path class="cls-2" d="M445.46,547.18c-19.63,13.35-47.01,12.95-66.13.22-7.1-4.73-8.64-13.16-10.41-21.31l-.1-500.97,85.74-.52.37,501.49c-1.66,7.43-2.33,16.24-9.46,21.09Z"/>
      <path class="cls-4" d="M414.98,98.25c-4.3,2.57-6.13,5.22-10.29,6.78-12.83,4.83-23.53,13.02-35.45,18.66l-.43-98.56L411.99,0l42.56,24.6.13,49.91-39.69,23.74Z"/>
    </g>
  </g>
</svg>