<?xml version="1.0" encoding="UTF-8"?>
<svg id="Capa_2" data-name="Capa 2" xmlns="http://www.w3.org/2000/svg" xmlns:xlink="http://www.w3.org/1999/xlink" viewBox="0 0 2559.91 959.63">
  <defs>
    <style>
      .cls-1 {
        fill: url(#Degradado_sin_nombre_213-2);
      }

      .cls-2 {
        fill: url(#Degradado_sin_nombre_213-3);
      }

      .cls-3 {
        letter-spacing: -.02em;
      }

      .cls-3, .cls-4, .cls-5, .cls-6, .cls-7, .cls-8, .cls-9, .cls-10, .cls-11, .cls-12, .cls-13, .cls-14, .cls-15, .cls-16, .cls-17, .cls-18, .cls-19, .cls-20, .cls-21, .cls-22, .cls-23, .cls-24, .cls-25, .cls-26, .cls-27, .cls-28, .cls-29 {
        font-family: Outfit-Black, Outfit;
        font-weight: 800;
      }

      .cls-4 {
        letter-spacing: -.08em;
      }

      .cls-30 {
        fill: url(#Degradado_sin_nombre_16);
      }

      .cls-5 {
        letter-spacing: -.04em;
      }

      .cls-31 {
        font-size: 126px;
      }

      .cls-31, .cls-32, .cls-33 {
        fill: #fff;
      }

      .cls-6 {
        letter-spacing: -.02em;
      }

      .cls-7 {
        letter-spacing: -.02em;
      }

      .cls-8, .cls-34, .cls-11, .cls-35, .cls-16, .cls-18, .cls-20, .cls-22, .cls-24, .cls-27 {
        font-size: 133px;
      }

      .cls-9 {
        letter-spacing: -.03em;
      }

      .cls-36, .cls-34, .cls-37, .cls-35 {
        font-family: Outfit-Light, Outfit;
        font-weight: 300;
      }

      .cls-36, .cls-26 {
        letter-spacing: 0em;
      }

      .cls-38 {
        fill: url(#Degradado_sin_nombre_213-4);
      }

      .cls-11 {
        letter-spacing: -.02em;
      }

      .cls-12 {
        letter-spacing: -.02em;
      }

      .cls-13 {
        letter-spacing: 0em;
      }

      .cls-14 {
        letter-spacing: -.04em;
      }

      .cls-35 {
        letter-spacing: -.03em;
      }

      .cls-15 {
        letter-spacing: -.04em;
      }

      .cls-16 {
        letter-spacing: -.08em;
      }

      .cls-17 {
        letter-spacing: 0em;
      }

      .cls-39 {
        fill: url(#Degradado_sin_nombre_213);
      }

      .cls-18 {
        letter-spacing: -.01em;
      }

      .cls-19 {
        font-size: 147.91px;
      }

      .cls-20 {
        letter-spacing: -.01em;
      }

      .cls-21 {
        letter-spacing: 0em;
      }

      .cls-22 {
        letter-spacing: -.03em;
      }

      .cls-23 {
        letter-spacing: -.02em;
      }

      .cls-24 {
        letter-spacing: -.04em;
      }

      .cls-25 {
        letter-spacing: -.01em;
      }

      .cls-33 {
        font-size: 81px;
      }

      .cls-27 {
        letter-spacing: 0em;
      }

      .cls-28 {
        letter-spacing: -.05em;
      }

      .cls-29 {
        letter-spacing: -.01em;
      }
    </style>
    <linearGradient id="Degradado_sin_nombre_16" data-name="Degradado sin nombre 16" x1=".01" y1="370.52" x2="823.86" y2="370.52" gradientUnits="userSpaceOnUse">
      <stop offset="0" stop-color="#00d0ff"/>
      <stop offset="1" stop-color="#58b031"/>
    </linearGradient>
    <linearGradient id="Degradado_sin_nombre_213" data-name="Degradado sin nombre 213" x1="368.94" y1="705.84" x2="824" y2="705.84" gradientUnits="userSpaceOnUse">
      <stop offset="0" stop-color="#fff"/>
      <stop offset="1" stop-color="#c5e3da"/>
    </linearGradient>
    <linearGradient id="Degradado_sin_nombre_213-2" data-name="Degradado sin nombre 213" x1="0" y1="666.4" x2="334.6" y2="666.4" xlink:href="#Degradado_sin_nombre_213"/>
    <linearGradient id="Degradado_sin_nombre_213-3" data-name="Degradado sin nombre 213" x1="368.81" y1="301.63" x2="454.92" y2="301.63" xlink:href="#Degradado_sin_nombre_213"/>
    <linearGradient id="Degradado_sin_nombre_213-4" data-name="Degradado sin nombre 213" x1="368.81" y1="72.64" x2="454.68" y2="72.64" xlink:href="#Degradado_sin_nombre_213"/>
  </defs>
  <g id="Capa_1-2" data-name="Capa 1">
    <text class="cls-33" transform="translate(1225.79 381.21)"><tspan class="cls-10" x="0" y="0">S</tspan><tspan class="cls-25" x="49.33" y="0">I</tspan><tspan class="cls-23" x="73.95" y="0">S</tspan><tspan class="cls-10" x="121.5" y="0">TEM</tspan><tspan class="cls-9" x="297.43" y="0">A</tspan><tspan class="cls-26" x="356.32" y="0" xml:space="preserve"> INT</tspan><tspan class="cls-29" x="511.43" y="0">E</tspan><tspan class="cls-10" x="562.22" y="0">G</tspan><tspan class="cls-14" x="626.77" y="0">R</tspan><tspan class="cls-13" x="678.53" y="0">AL</tspan><tspan class="cls-10" x="784.72" y="0" xml:space="preserve">  </tspan><tspan class="cls-36" x="813.88" y="0">DE </tspan><tspan class="cls-26" x="938.86" y="0">G</tspan><tspan class="cls-6" x="1003.42" y="0">E</tspan><tspan class="cls-3" x="1053.72" y="0">S</tspan><tspan class="cls-10" x="1101.27" y="0">TIÓN</tspan></text>
    <text class="cls-31" transform="translate(1225.79 485.21) scale(1 .91)"><tspan class="cls-37" x="0" y="0">DE</tspan><tspan class="cls-21" x="167.33" y="0"> </tspan><tspan class="cls-7" x="190.01" y="0">C</tspan><tspan class="cls-17" x="275.31" y="0">A</tspan><tspan class="cls-28" x="369.43" y="0">P</tspan><tspan class="cls-5" x="445.79" y="0">A</tspan><tspan class="cls-10" x="535.62" y="0">CI</tspan><tspan class="cls-4" x="663.26" y="0">T</tspan><tspan class="cls-15" x="736.47" y="0">A</tspan><tspan class="cls-10" x="826.3" y="0">CION</tspan><tspan class="cls-12" x="1152.51" y="0">E</tspan><tspan class="cls-10" x="1230.76" y="0">S</tspan></text>
    <text class="cls-32" transform="translate(2533.29 485.21)"><tspan class="cls-19" x="0" y="0"> </tspan><tspan class="cls-34" x="-1307.49" y="121">DE </tspan><tspan class="cls-35" x="-1102.28" y="121">L</tspan><tspan class="cls-34" x="-1032.19" y="121">A</tspan><tspan class="cls-8" x="-940.42" y="121" xml:space="preserve"> L</tspan><tspan class="cls-18" x="-840.41" y="121">E</tspan><tspan class="cls-27" x="-757.01" y="121">G</tspan><tspan class="cls-20" x="-651.01" y="121">I</tspan><tspan class="cls-8" x="-610.58" y="121">S</tspan><tspan class="cls-11" x="-529.58" y="121">L</tspan><tspan class="cls-16" x="-455.64" y="121">A</tspan><tspan class="cls-8" x="-365.6" y="121">TU</tspan><tspan class="cls-24" x="-182.99" y="121">R</tspan><tspan class="cls-22" x="-98" y="121">A</tspan></text>
    <g>
      <path class="cls-30" d="M776.86,221.2c30.4,17.63,47.03,50.15,46.99,84l-.07,64.38-86.95.9.51-57.27c-.96-11.7-7.7-20.25-17.78-26.04l-143.8-82.64-.98,336.45c-.18,62.57-42.63,114.57-100.49,134.3-41.16,14.04-83.28,12.99-124.62.32-57.81-19.8-100.1-70.67-100.61-132.86l-1.61-199.07-166.07,94.94c-17.59,10.06-39.07,5.8-55.49-5.39-13.82-9.41-24.64-26.67-25.15-46.25-.79-29.89-1.24-59.3.18-89.02,1.69-35.33,21.92-63.23,51.98-80.53L334.09,55.59l.55,98.45-233.98,135.48c-16.54,9.57-15.2,31.08-12.48,48.22l151.48-86.25c29.58-16.84,66.26-8.92,84.03,19.94,7.36,11.96,10.77,25.66,10.81,40.02l.68,224.87c.07,23.76,15.74,45.8,36.94,54.62,25.72,10.7,54.24,10.67,79.88.11,21.01-8.65,36.68-30.38,36.73-54.13l.69-361.47c.03-16.22,6.11-30.9,16.17-43.1,22.25-26.99,62.08-32.45,92.68-14.71l178.6,103.56Z"/>
      <path class="cls-39" d="M368.98,713.12c29.96,5.74,57.52,4.94,85.69.58l.9,135.66,263.6-152.11c13.6-7.85,18.3-21.33,18.28-36.02l-.2-122.99-78.12-.48-.16-85.62,165.05-.1-.42,227.02c-.07,36.32-20.1,66.87-50.21,85.57l-313.64,181.46c-28.77,16.65-61.91,18.52-90.79,2.38l.04-235.35Z"/>
      <path class="cls-1" d="M334.6,830l-.54,98.61L51.12,764.91c-30.95-19.57-49.87-50.79-50.58-87.64-.57-29.54-.96-58.44.25-87.48,1.85-44.33,26.7-78.24,63.98-99.71l149.09-85.89.3,97.94-104.05,61.03c-12.99,6.58-21.36,18.18-23.58,32.5l.35,71.42c.07,14.55,8.38,25.93,21.48,32.31l226.24,130.62Z"/>
      <path class="cls-2" d="M445.46,557.97c-19.63,13.35-47.01,12.95-66.13.22-7.1-4.73-8.64-13.16-10.41-21.31l-.1-500.97,85.74-.52.37,501.49c-1.66,7.43-2.33,16.24-9.46,21.09Z"/>
      <path class="cls-38" d="M414.98,109.04c-4.3,2.57-6.13,5.22-10.29,6.78-12.83,4.83-23.53,13.02-35.45,18.66l-.43-98.56,43.18-25.12,42.56,24.6.13,49.91-39.69,23.74Z"/>
    </g>
  </g>
  <g id="Capa_2-2" data-name="Capa 2">
    <rect class="cls-32" x="1024.64" width="13.71" height="948.83"/>
  </g>
</svg>